<svg aria-hidden="true" style="position: absolute; width: 0; height: 0; overflow: hidden;" version="1.1" xmlns="http://www.w3.org/2000/svg" xmlns:xlink="http://www.w3.org/1999/xlink">
<defs>
<symbol id="icon-arrow-down" viewBox="0 0 24 32">
<path d="M10.588 29.413c0.781 0.781 2.050 0.781 2.831 0l10-10c0.781-0.781 0.781-2.050 0-2.831s-2.050-0.781-2.831 0l-6.588 6.594v-19.175c0-1.106-0.894-2-2-2s-2 0.894-2 2v19.169l-6.588-6.581c-0.781-0.781-2.050-0.781-2.831 0s-0.781 2.050 0 2.831l10 10z"></path>
</symbol>
<symbol id="icon-arrow-left" viewBox="0 0 28 32">
<path d="M0.588 14.588c-0.781 0.781-0.781 2.050 0 2.831l10 10c0.781 0.781 2.050 0.781 2.831 0s0.781-2.050 0-2.831l-6.594-6.587h19.175c1.106 0 2-0.894 2-2s-0.894-2-2-2h-19.169l6.581-6.588c0.781-0.781 0.781-2.050 0-2.831s-2.050-0.781-2.831 0l-10 10z"></path>
</symbol>
<symbol id="icon-arrow-right" viewBox="0 0 28 32">
<path d="M27.413 17.413c0.781-0.781 0.781-2.050 0-2.831l-10-10c-0.781-0.781-2.050-0.781-2.831 0s-0.781 2.050 0 2.831l6.594 6.587h-19.175c-1.106 0-2 0.894-2 2s0.894 2 2 2h19.169l-6.581 6.587c-0.781 0.781-0.781 2.050 0 2.831s2.050 0.781 2.831 0l10-10z"></path>
</symbol>
<symbol id="icon-arrow-up" viewBox="0 0 24 32">
<path d="M13.412 2.587c-0.781-0.781-2.050-0.781-2.831 0l-10 10c-0.781 0.781-0.781 2.050 0 2.831s2.050 0.781 2.831 0l6.587-6.594v19.175c0 1.106 0.894 2 2 2s2-0.894 2-2v-19.175l6.587 6.588c0.781 0.781 2.050 0.781 2.831 0s0.781-2.050 0-2.831l-10-10z"></path>
</symbol>
</defs>
</svg>
